<?xml version="1.0" encoding="UTF-8"?><svg id="a" xmlns="http://www.w3.org/2000/svg" viewBox="0 0 280.45 280.45"><defs><style>.b{fill:#5a48e0;}</style></defs><path class="b" d="M180.45,86.23c1.23,1.23,2.38,2.49,3.47,3.8,.63,.75,1.23,1.52,1.81,2.3,14.81,19.79,14.81,47.15,0,66.94-.49,.66-1,1.31-1.52,1.95l8.11,8.11,19.78-19.78,19.78-19.78,3.96-3.96-3.96-3.96-19.78-19.78-19.78-19.78-3.96-3.96-3.96,3.96-3.96,3.96Z"/><path class="b" d="M179.46,93.42c-.93-1.11-1.92-2.19-2.97-3.23-18.33-18.33-47.27-19.57-67.04-3.74l11.98,11.98,23.41,23.41,10.61,10.61,12.8,12.8,11.98,11.98c14.93-18.65,14.68-45.45-.77-63.81Z"/><polygon class="b" points="69.67 102.05 49.89 121.83 45.93 125.79 49.89 129.75 69.67 149.53 136.93 216.79 140.89 220.75 144.84 216.79 188.37 173.27 180.45 165.36 176.5 161.4 164.63 149.53 140.89 125.79 117.15 102.05 105.28 90.18 101.32 86.23 97.37 82.27 93.41 78.31 89.45 82.27 69.67 102.05"/></svg>